PathFileType	4	(X/Y/Z)	C:\Users\chris\Documents\GitHub\baseballds\vids\pitch5_Sports2D\pitch5_Sports2D_px_person03.trc
DataRate	CameraRate	NumFrames	NumMarkers	Units	OrigDataRate	OrigDataStartFrame	OrigNumFrames
30	30	8	22	m	30	18	149
Frame#	Time	Hip			RHip			RKnee			RAnkle			RBigToe			RSmallToe			RHeel			LHip			LKnee			LAnkle			LBigToe			LSmallToe			LHeel			Neck			Head			Nose			RShoulder			RElbow			RWrist			LShoulder			LElbow			LWrist		
		X1	Y1	Z1	X2	Y2	Z2	X3	Y3	Z3	X4	Y4	Z4	X5	Y5	Z5	X6	Y6	Z6	X7	Y7	Z7	X8	Y8	Z8	X9	Y9	Z9	X10	Y10	Z10	X11	Y11	Z11	X12	Y12	Z12	X13	Y13	Z13	X14	Y14	Z14	X15	Y15	Z15	X16	Y16	Z16	X17	Y17	Z17	X18	Y18	Z18	X19	Y19	Z19	X20	Y20	Z20	X21	Y21	Z21	X22	Y22	Z22
18	0.6	1474.5968078173244	436.06956634686475	0.0	1473.1551813806284	436.4028045395778	0.0	1474.3816239640225	449.6529226963802	0.0	1476.3565497464501	462.84865869055767	0.0	1470.0716397919089	466.04686302039005	0.0	1469.7929974974177	464.96095825087593	0.0	1477.818938251909	464.6865856136201	0.0	1476.095455792221	436.2496009438836	0.0	1476.778617164105	450.0259451258424	0.0	1477.845534705599	463.4786439320843	0.0	1472.4071029543477	466.40089355927904	0.0	1473.3861497194496	465.7226370434597	0.0	1479.567854119447	464.86040153201094	0.0	1474.5355670692438	414.64511600866695	0.0	1472.5334036590557	404.8141863837191	0.0	1471.3060175064204	410.82850426811126	0.0	1473.3195467838216	418.47637159282533	0.0	1474.0439790735272	426.9471873219916	0.0	1473.4834634231472	437.1807643117364	0.0	1477.0540854796784	418.08282848561146	0.0	1478.8938187936953	427.648738586405	0.0	1475.5594123933652	437.58749889501325	0.0
19	0.6333333333333333	1474.8725293240864	436.7501920872053	0.0	1473.3886717574333	437.1254070091656	0.0	1474.5581443747349	450.4056342678294	0.0	1476.5093749564726	463.72600863805064	0.0	1470.2807546897448	466.8998786573443	0.0	1470.034202159759	465.8176331973511	0.0	1477.9377180517076	465.5728984724957	0.0	1476.4159044750083	436.97466750169673	0.0	1477.058642006383	450.8320327441029	0.0	1478.177587645081	464.3741086076453	0.0	1472.9352543754126	467.30975142903344	0.0	1473.8405486565364	466.69309605913713	0.0	1479.7798349192979	465.8199248249807	0.0	1474.819472600627	415.37878938010874	0.0	1472.8380724455476	405.54026116745695	0.0	1471.5612452451032	411.6846951615879	0.0	1473.390090607078	419.22154551774776	0.0	1474.2773389750796	427.6731594612969	0.0	1473.620699325164	437.871816688316	0.0	1477.3620125967832	418.8302931224858	0.0	1479.1425088856693	428.3933173555203	0.0	1475.8883906803012	438.3960310893375	0.0
20	0.6666666666666666	1475.2440091745555	437.47188379566387	0.0	1473.7538757505008	437.8363585618048	0.0	1474.821826279563	451.1272875655026	0.0	1476.77836440647	464.5385843836691	0.0	1470.539702746336	467.68931620421245	0.0	1470.3849357457493	466.6649880381589	0.0	1478.2042890525772	466.4181715772245	0.0	1476.8013015863385	437.7206865300268	0.0	1477.3375480958052	451.6079662467487	0.0	1478.5820684290152	465.2543061765432	0.0	1473.5338158476982	468.16222200192595	0.0	1474.3618099686778	467.61267568767613	0.0	1480.119981671217	466.66892782147426	0.0	1475.2357117492552	416.3381830726018	0.0	1473.2789508173075	406.41663451115664	0.0	1471.9480042283685	412.75455737183864	0.0	1473.6035946841553	420.0804102411465	0.0	1474.4273178844692	428.43379177871356	0.0	1473.7669458764872	438.53516932736943	0.0	1477.7772706574376	419.73021813615986	0.0	1479.34709370069	429.1887641336327	0.0	1476.2055997249115	439.2210892673649	0.0
21	0.7	1475.5594161941565	438.35887552219344	0.0	1474.1009129521249	438.68511730188493	0.0	1475.165398744921	451.93242789108024	0.0	1477.2186734125514	465.2740695465592	0.0	1471.001401640527	468.52377330378283	0.0	1470.857630310928	467.4842837987193	0.0	1478.630667474678	467.13138518615375	0.0	1477.1107995348368	438.58457819616126	0.0	1477.5709995652567	452.3991150222355	0.0	1478.8636007673642	466.0353552886578	0.0	1473.8351674604194	468.946221830897	0.0	1474.598086850349	468.49268186025284	0.0	1480.4396285680734	467.34904338883086	0.0	1475.5347103215097	417.5303804242682	0.0	1473.5756353321544	407.4836010229825	0.0	1472.2780473043474	414.0272210455121	0.0	1473.841628050061	421.24001288274604	0.0	1474.2375467818838	429.4725372372537	0.0	1473.877684275957	439.4806754113486	0.0	1478.103137826719	420.93409125965735	0.0	1479.504768592548	430.29985223991525	0.0	1476.300413553793	440.2060976163496	0.0
22	0.7333333333333333	1475.876270402318	439.68033819257096	0.0	1474.4570477612356	439.94911443753296	0.0	1475.5661827117108	453.0764362505681	0.0	1477.697330392037	466.07418412994355	0.0	1471.5084155684935	469.4384863146	0.0	1471.3402026032768	468.35442104489266	0.0	1479.0854329690358	467.9002961984503	0.0	1477.3345872491377	439.86099168387165	0.0	1477.7649956275084	453.4583509434371	0.0	1479.0537381780218	466.83297114812973	0.0	1473.8567170068554	469.8077070565419	0.0	1474.616539809011	469.44646117861754	0.0	1480.6712413431862	468.1081832616636	0.0	1475.7712505619406	419.3259367691458	0.0	1473.7543702138223	409.2836526553463	0.0	1472.5711756179294	415.83600100467226	0.0	1474.2671602150963	423.0702473190465	0.0	1474.30508559502	431.1589921567254	0.0	1474.1953269384285	440.8441049983154	0.0	1478.2681156292533	422.69277647408694	0.0	1479.6627944234692	431.8516802548419	0.0	1476.340380794864	441.4179580739976	0.0
23	0.7666666666666666	1476.2871291096853	441.46087855236306	0.0	1474.9139142998752	441.6581261194285	0.0	1475.9915585742308	454.62292880399895	0.0	1478.0513576393573	467.10082802472175	0.0	1471.750954418622	470.42589326517	0.0	1471.6774379118056	469.3306461242337	0.0	1479.4625206423807	468.9242336735482	0.0	1477.5509278098166	441.6271550036124	0.0	1477.9687023789718	454.9554098597898	0.0	1479.2802885191254	467.8465372309639	0.0	1473.8797294040887	470.86918064122426	0.0	1474.7204556931754	470.5587209701921	0.0	1480.935359550429	469.1820909109466	0.0	1476.1523979851872	421.71654081739763	0.0	1474.020199289254	411.86639826537737	0.0	1472.9383747917154	418.1937259837499	0.0	1475.0854704208452	425.42294228350204	0.0	1475.2166832451042	433.2729245399407	0.0	1474.772782297686	442.296736686972	0.0	1478.3938177618852	424.8421685738715	0.0	1479.8228870252078	433.55018925057993	0.0	1476.5395581037176	442.6874471320266	0.0
24	0.8	1476.632261398436	443.1210511171346	0.0	1475.3267995938231	443.2907861442305	0.0	1476.3507724632877	456.12356215067825	0.0	1478.223169673323	468.2307566759948	0.0	1471.739035536218	471.4292811151532	0.0	1471.817439916262	470.31858595651255	0.0	1479.69235607592	470.0253223069779	0.0	1477.7203053482408	443.3463495356577	0.0	1478.1651544770366	456.4987689426026	0.0	1479.476237343192	468.98085055667156	0.0	1474.0079718136637	471.9526823617912	0.0	1474.9499968674431	471.6296082198196	0.0	1481.2361677112062	470.33559557849287	0.0	1476.6205693094366	423.84650576679655	0.0	1474.426445583185	414.1776598043487	0.0	1473.3599865938334	420.25811570568305	0.0	1475.968176369486	427.4415980799152	0.0	1476.459980604911	435.0026531121491	0.0	1475.262910728804	443.5066212319818	0.0	1478.5969445736243	426.72130626865777	0.0	1479.9496038634727	434.95003769722683	0.0	1476.7926692359151	443.85704573225695	0.0
25	0.8333333333333334	1476.738195369967	444.12930044816954	0.0	1475.5012250250732	444.37520326480734	0.0	1476.5585931052583	457.14794328311456	0.0	1478.2388048065359	469.23621737628713	0.0	1471.7583883477878	472.405348564404	0.0	1471.8534849250086	471.253204425174	0.0	1479.7613677505085	470.9824578467534	0.0	1477.7306366710122	444.4677610311509	0.0	1478.289621640894	457.57215719344117	0.0	1479.5432207743208	469.99962515696865	0.0	1474.151831746444	472.88293006313404	0.0	1475.14809178847	472.5246734567247	0.0	1481.4532332386964	471.27996460568534	0.0	1476.9872513387138	425.1000402175097	0.0	1474.8467309749578	415.3745456852403	0.0	1473.7076826199773	421.4049764607215	0.0	1476.4409940400005	428.6213256270065	0.0	1477.0948715783843	435.98715056323806	0.0	1475.4411310971898	444.55961658939054	0.0	1478.8064841550954	427.97948264771225	0.0	1479.9943582444666	435.9883432243978	0.0	1476.9199448449426	444.99199115832755	0.0
